<svg height="70px" width="70px" fill='' xmlns="http://www.w3.org/2000/svg" xmlns:xlink="http://www.w3.org/1999/xlink" version="1.1" x="0px" y="0px" viewBox="0 0 73 91.25" style="enable-background:new 0 0 73 73;" ><g filter="url(#myfilters)"><path d="M27.450407,5.7299199c-5.2553711,1.9118652-11.9954224,5.632812-15.6397705,10.4580078   c-1.3655396-1.0454102-2.6807251-2.0141602-3.8612065-2.8369141c-0.456759-0.3177452-1.0926328-0.0446615-1.1713867,0.5097656   c-0.5703125,4.0332031-1.3540039,11.7724609-0.1928711,18.2998047c0.0375977,0.2099609,0.1630859,0.3955078,0.3457031,0.5068359   c0.4612169,0.2823792,0.8184686-0.0424271,1.8974614-0.3066406c4.2709961-1.2753906,10.7250977-3.203125,14.171875-5.4560547   c0.4008961-0.2631512,0.4573002-0.8314018,0.1113281-1.1660156c-0.9700317-0.940918-2.1610718-2.0224609-3.4700317-3.1618652   c6.1259766-5.0583496,11.9797363-7.8171387,18.9444561-7.7314453c10.638958,0.1313381,20.0548897,9.4526234,20.1181641,22.6687012   c-0.244812,3.1835938-1.102417,6.2470703-2.6121216,8.8408203c-4.3129883,7.3974609-14.2299805,12.4462891-22.5825195,11.4873047   c-7.9072247-0.8964844-16.5141582-8.6220703-19.1860332-17.2216797c-0.1312847-0.4201088-0.5983334-0.6448631-1.0136719-0.4658203   c-1.8934336,0.8181496-4.4824476,1.885643-6.3076177,2.6748047c-0.3100586,0.1335449-0.4790649,0.4570313-0.4364624,0.7851563   c-0.4872437,1.0722656-0.9744873,2.1445313-1.461792,3.2167969c2.9624028,8.4204102,9.1120605,16.0515137,17.3331299,19.5290527   c12.8805447,5.4481735,28.7633762,2.1277237,38.1679688-10.2680664   c10.1922493-11.8232651,9.1528282-29.5817032,0.2702026-40.2717285C52.3952293,5.6156621,38.9626122,1.561951,27.450407,5.7299199z    M62.6413231,50.6557007c-6.0195313,10.5341797-18.621582,16.6425781-30.6533184,14.8583984   c-11.675293-1.7226563-20.7436523-9.9580078-23.8041992-21.5595703c1.4525852-0.6224098,3.3890018-1.4267731,4.96875-2.0996094   c3.1005859,8.7939453,11.9882813,16.5478516,20.1870098,17.4775391   c8.8964844,1.0146484,19.4589844-4.3496094,24.0483398-12.2226563c4.4301758-7.609375,3.6791992-18.9765625-1.7475586-26.4404297   c-5.2978516-7.2705078-15.1235352-11.0078125-23.8979473-9.0888672c-5.0943604,1.1191406-10.260437,5.0390625-14.7562256,8.7392578   c-1.3051147-1.0839844-2.6585693-2.1743164-3.9889526-3.2133789c3.4370117-4.5695801,9.9077148-8.1264648,14.9649048-9.9663086   c10.9194317-3.9560547,23.6816387-0.0820313,31.7597637,9.6396484   C67.3703308,25.9848022,68.5983582,40.2318726,62.6413231,50.6557007z"/><path d="M30.4557781,47.7650757c5.1538067-2.6838684,12.0133495-5.1328545,17.2285137-7.8496094   c0.4484062-0.2335014,0.5425529-0.8358078,0.1850586-1.1943359c-4.8071289-4.8203125-10.4086914-8.9365234-17.6293926-12.9541016   c-0.4953117-0.2741337-1.1050873,0.0748501-1.1131592,0.6455078c-0.0023193-0.0830078-0.0057983-0.1699219-0.0080566-0.2524414   c-0.6538696,0.3688965-1.5133057,0.8886719-1.4883423,1.6391602c0.2449951,7.3728027,0.3150024,12.8303223,0.5029907,19.1225586   c0.625,0.25,1.2420044,0.7502441,1.8670044,1.0002441c-0.0009155-0.0334473-0.0023804-0.0686035-0.0032959-0.1022949   c0.0383301,0.0061035,0.0733032,0.0302734,0.1119995,0.0302734C30.2277508,47.8500366,30.3468914,47.8217163,30.4557781,47.7650757   z M30.6188641,27.7025757c6.2060528,3.5458984,11.1625957,7.1875,15.4521465,11.3515625   c-4.6833725,2.3286667-10.4924698,4.4866905-15.2543926,6.8457031   C30.6188641,40.1019897,30.5905437,34.3451538,30.6188641,27.7025757z"/></g>
</svg>