<?xml version="1.0" encoding="iso-8859-1"?>
<!-- Uploaded to: SVG Repo, www.svgrepo.com, Generator: SVG Repo Mixer Tools -->
<!DOCTYPE svg PUBLIC "-//W3C//DTD SVG 1.1//EN" "http://www.w3.org/Graphics/SVG/1.1/DTD/svg11.dtd">
<svg fill="whitesmoke" height="100px" width="100px" version="1.1" id="Capa_1" xmlns="http://www.w3.org/2000/svg" xmlns:xlink="http://www.w3.org/1999/xlink" 
	 viewBox="0 0 480.223 480.223" xml:space="preserve">
<path d="M240.111,0C107.718,0,0.006,107.71,0.006,240.104c0,132.401,107.711,240.119,240.105,240.119
	s240.105-107.718,240.105-240.119C480.216,107.71,372.505,0,240.111,0z M240.111,432.564c-1.256,0-2.475-0.162-3.724-0.185
	C165.42,396.907,116.506,323.854,116.506,239.11c0-83.029,46.984-154.818,115.646-191.051c2.653-0.108,5.276-0.401,7.959-0.401
	c106.113,0,192.447,86.332,192.447,192.445C432.559,346.225,346.225,432.564,240.111,432.564z"/>
</svg>